<svg xmlns="http://www.w3.org/2000/svg" viewBox="0 0 100 100" style="transform:rotate(45deg) scale(.9)"><g fill="#FD7E14" transform="translate(0,100) scale(0.1,-0.1)"><path d="M354 917 c-3 -8 -4 -32 -2 -53 2 -31 7 -39 23 -39 17 0 20 7 20 50 0 39 -4 50 -18 53 -9 2 -20 -3 -23 -11z"/><path d="M193 884 c-8 -21 65 -96 91 -92 32 5 29 24 -10 67 -38 42 -70 53 -81 25z"/><path d="M457 796 c-31 -24 -68 -47 -82 -50 -16 -4 -25 -13 -25 -27 0 -45 66 -31 132 29 46 41 72 39 76 -6 3 -28 0 -32 -21 -32 -29 0 -37 -16 -37 -70 0 -32 -4 -39 -30 -50 -42 -17 -102 -78 -125 -125 -10 -22 -21 -68 -23 -102 -11 -167 108 -293 279 -293 115 0 229 89 260 203 15 55 6 144 -19 193 -24 46 -83 105 -129 128 -31 15 -33 20 -33 66 0 49 -1 50 -29 50 -26 0 -30 4 -36 39 -8 48 -45 91 -78 91 -13 0 -49 -20 -80 -44z m71 -324 c2 -15 -5 -32 -17 -43 -12 -11 -28 -36 -36 -55 -11 -28 -19 -35 -37 -32 -44 6 -30 86 23 139 27 27 63 21 67 -9z"/><path d="M140 735 c-7 -8 -10 -22 -6 -30 8 -22 119 -21 137 1 11 14 10 18 -6 30 -26 19 -109 18 -125 -1z"/><path d="M226 609 c-39 -43 -42 -62 -10 -67 26 -4 99 71 91 92 -11 28 -43 17 -81 -25z"/></g></svg>