<svg fill="#C850F2" xmlns="http://www.w3.org/2000/svg"  viewBox="0 0 48 48" width="100px" height="100px"><path d="M 11.5 6 C 8.4802259 6 6 8.4802259 6 11.5 L 6 36.5 C 6 39.519774 8.4802259 42 11.5 42 L 13.552734 42 A 1.50015 1.50015 0 1 0 13.552734 39 L 11.5 39 C 10.101774 39 9 37.898226 9 36.5 L 9 11.5 C 9 10.101774 10.101774 9 11.5 9 L 27.765625 9 A 1.50015 1.50015 0 1 0 27.765625 6 L 11.5 6 z M 34 6 A 1.50015 1.50015 0 1 0 34 9 L 36.5 9 C 37.898226 9 39 10.101774 39 11.5 L 39 36.5 C 39 37.898226 37.898226 39 36.5 39 L 19 39 A 1.50015 1.50015 0 1 0 19 42 L 36.5 42 C 39.519774 42 42 39.519774 42 36.5 L 42 11.5 C 42 8.4802259 39.519774 6 36.5 6 L 34 6 z M 29 17 C 26.344 17 24.387625 18.682109 24.015625 21.287109 C 23.898625 22.107109 24.467109 22.867375 25.287109 22.984375 C 26.106109 23.102375 26.867375 22.533891 26.984375 21.712891 C 27.096375 20.931891 27.537 20 29 20 C 30.103 20 31 20.897 31 22 C 31 23.103 30.103 24 29 24 C 26.592 24 24 25.721 24 29.5 C 24 30.329 24.671 31 25.5 31 L 32.5 31 C 33.329 31 34 30.329 34 29.5 C 34 28.671 33.329 28 32.5 28 L 27.308594 28 C 27.781594 27.093 28.664 27 29 27 C 31.757 27 34 24.757 34 22 C 34 19.243 31.757 17 29 17 z M 15.636719 22.005859 C 15.254469 21.971109 14.858063 22.082156 14.539062 22.347656 C 13.903063 22.877656 13.817656 23.825938 14.347656 24.460938 L 16.046875 26.5 L 14.347656 28.539062 C 13.817656 29.175062 13.903063 30.122344 14.539062 30.652344 C 14.820062 30.886344 15.160047 31 15.498047 31 C 15.928047 31 16.355344 30.816938 16.652344 30.460938 L 18 28.84375 L 19.347656 30.460938 C 19.644656 30.816938 20.071953 31 20.501953 31 C 20.839953 31 21.180937 30.886344 21.460938 30.652344 C 22.096937 30.122344 22.182344 29.174062 21.652344 28.539062 L 19.951172 26.5 L 21.652344 24.460938 C 22.182344 23.824938 22.096938 22.877656 21.460938 22.347656 C 20.823937 21.817656 19.878656 21.903062 19.347656 22.539062 L 18 24.15625 L 16.652344 22.539062 C 16.387344 22.220562 16.018969 22.040609 15.636719 22.005859 z"/></svg>