<svg xmlns="http://www.w3.org/2000/svg" viewBox="0 0 100 100"><g transform="translate(0,100) scale(0.1,-0.1)"><path fill="#228BE6" d="M470 843 l0 -57 -38 37 c-36 35 -39 36 -55 20 -16 -16 -14 -20 38 -73 l56 -56 -3 -81 -3 -81 -66 39 -65 39 -18 75 c-15 62 -21 75 -37 75 -26 0 -33 -20 -21 -64 12 -43 5 -45 -47 -11 l-39 24 -15 -22 c-13 -20 -12 -23 36 -53 l51 -32 -40 -11 c-21 -6 -45 -11 -51 -11 -14 0 -15 -5 -7 -37 l6 -21 66 19 c37 10 75 19 84 19 19 0 138 -69 138 -80 0 -11 -119 -80 -138 -80 -9 0 -47 9 -84 19 l-66 19 -6 -21 c-8 -32 -7 -37 7 -37 6 0 30 -5 51 -11 l40 -11 -51 -32 c-48 -30 -49 -33 -36 -53 l15 -22 39 24 c52 34 59 32 47 -11 -12 -44 -5 -64 21 -64 16 0 22 13 37 75 l18 75 65 39 66 39 3 -81 3 -81 -56 -56 c-52 -53 -54 -57 -38 -73 16 -16 19 -15 55 20 l38 37 0 -57 c0 -57 0 -57 30 -57 30 0 30 0 30 57 l0 57 38 -37 c36 -35 39 -36 55 -20 16 16 14 20 -38 73 l-56 56 3 81 3 81 66 -38 65 -39 19 -79 c15 -70 20 -79 37 -74 26 7 31 23 20 66 -12 43 -5 45 47 11 l39 -24 15 22 c14 21 13 23 -36 54 l-51 31 40 11 c21 6 45 11 53 11 9 0 11 7 7 23 -3 12 -6 25 -6 29 0 4 -30 -2 -67 -13 -38 -10 -76 -19 -85 -19 -19 0 -138 69 -138 80 0 11 119 80 138 80 9 0 47 -9 84 -19 l66 -19 6 21 c8 32 7 37 -6 37 -7 0 -31 5 -52 11 l-40 11 51 31 c49 31 50 33 36 54 l-15 22 -39 -24 c-52 -34 -59 -32 -47 11 11 43 6 59 -20 66 -17 5 -22 -4 -37 -74 l-19 -79 -65 -39 -66 -38 -3 81 -3 81 56 56 c52 53 54 57 38 73 -16 16 -19 15 -55 -20 l-38 -37 0 57 c0 57 0 57 -30 57 -30 0 -30 0 -30 -57z"/></g></svg>