<svg id="svg" version="1.1" xmlns="http://www.w3.org/2000/svg" xmlns:xlink="http://www.w3.org/1999/xlink" width="400" height="400" viewBox="0, 0, 400,400"><g id="svgg"><path id="path0" d="M176.463 0.306 C 175.605 0.432,174.025 0.641,172.952 0.771 C 171.879 0.900,170.358 1.137,169.571 1.297 C 168.784 1.456,167.438 1.692,166.580 1.821 C 165.722 1.949,164.434 2.172,163.719 2.317 C 163.004 2.462,162.009 2.652,161.508 2.739 C 161.008 2.825,160.364 2.997,160.078 3.121 C 159.570 3.340,158.664 3.530,156.827 3.800 C 156.326 3.873,155.683 4.034,155.397 4.158 C 154.764 4.431,153.664 4.678,152.276 4.859 C 151.704 4.934,151.124 5.100,150.988 5.228 C 150.852 5.357,150.420 5.462,150.028 5.462 C 149.636 5.462,149.243 5.579,149.155 5.722 C 149.066 5.865,148.657 5.982,148.244 5.982 C 147.832 5.982,147.423 6.099,147.334 6.242 C 147.246 6.385,146.836 6.502,146.424 6.502 C 146.012 6.502,145.602 6.619,145.514 6.762 C 145.425 6.905,145.007 7.022,144.585 7.022 C 144.162 7.022,143.613 7.128,143.364 7.257 C 143.116 7.386,142.386 7.640,141.743 7.822 C 141.099 8.004,140.461 8.250,140.325 8.368 C 140.189 8.486,139.846 8.583,139.562 8.583 C 138.948 8.583,135.997 9.585,135.644 9.913 C 135.508 10.040,135.134 10.143,134.814 10.143 C 134.493 10.143,134.159 10.260,134.070 10.403 C 133.982 10.546,133.698 10.663,133.439 10.663 C 133.181 10.663,132.398 10.886,131.699 11.159 C 131.001 11.431,129.727 11.909,128.869 12.220 C 128.010 12.531,127.105 12.893,126.857 13.025 C 126.608 13.156,126.279 13.264,126.125 13.264 C 125.971 13.264,125.062 13.627,124.106 14.070 C 122.378 14.870,121.543 15.232,120.546 15.613 C 119.230 16.116,115.537 17.796,111.313 19.813 C 108.363 21.223,108.079 21.366,106.661 22.165 C 106.145 22.456,104.631 23.262,103.299 23.955 C 101.966 24.649,100.562 25.434,100.178 25.700 C 99.794 25.966,99.256 26.265,98.981 26.364 C 97.138 27.033,84.971 35.022,78.934 39.528 C 67.573 48.008,58.212 56.608,48.395 67.588 C 47.333 68.775,46.141 70.193,45.746 70.738 C 45.351 71.283,44.913 71.801,44.772 71.887 C 44.488 72.063,39.552 78.314,39.142 79.017 C 38.888 79.453,36.502 82.712,35.110 84.525 C 33.397 86.755,27.298 96.264,25.935 98.830 C 25.440 99.759,24.765 100.988,24.433 101.560 C 24.102 102.133,23.518 103.186,23.136 103.901 C 22.754 104.616,22.190 105.644,21.884 106.185 C 21.577 106.726,21.326 107.340,21.326 107.550 C 21.326 107.760,21.228 107.932,21.107 107.932 C 20.987 107.932,20.648 108.430,20.354 109.038 C 20.060 109.646,19.105 111.580,18.232 113.337 C 17.359 115.094,16.645 116.652,16.645 116.800 C 16.645 116.947,16.282 117.850,15.839 118.807 C 15.032 120.551,14.665 121.397,14.298 122.367 C 14.189 122.653,13.737 123.682,13.292 124.654 C 12.848 125.626,12.484 126.568,12.484 126.748 C 12.484 126.927,12.391 127.185,12.277 127.321 C 12.163 127.457,11.921 128.036,11.739 128.609 C 11.404 129.664,11.214 130.172,10.715 131.339 C 10.562 131.697,10.298 132.458,10.128 133.030 C 9.958 133.602,9.716 134.273,9.591 134.522 C 9.465 134.770,9.363 135.202,9.363 135.482 C 9.363 135.761,9.246 136.062,9.103 136.151 C 8.960 136.239,8.843 136.574,8.843 136.894 C 8.843 137.215,8.746 137.588,8.628 137.724 C 8.510 137.860,8.260 138.498,8.073 139.142 C 7.886 139.785,7.530 140.956,7.282 141.743 C 6.851 143.112,6.586 144.060,5.955 146.489 C 5.797 147.097,5.563 147.863,5.435 148.192 C 5.306 148.520,5.202 149.069,5.202 149.412 C 5.202 149.754,5.097 150.099,4.970 150.177 C 4.843 150.256,4.674 150.702,4.595 151.168 C 4.515 151.634,4.327 152.572,4.176 153.251 C 4.025 153.930,3.784 155.013,3.641 155.657 C 3.049 158.320,2.825 159.357,2.601 160.468 C 2.471 161.112,2.235 162.224,2.077 162.939 C 1.804 164.174,1.598 165.361,1.040 168.921 C 0.906 169.779,0.657 171.242,0.488 172.172 C 0.049 174.588,0.052 224.911,0.491 227.308 C 0.661 228.238,0.905 229.818,1.031 230.819 C 1.158 231.821,1.393 233.225,1.555 233.940 C 1.990 235.868,2.351 237.936,2.509 239.402 C 2.586 240.117,2.755 240.813,2.885 240.949 C 3.015 241.085,3.121 241.634,3.121 242.169 C 3.121 242.704,3.226 243.207,3.354 243.286 C 3.481 243.365,3.645 243.869,3.717 244.407 C 3.789 244.944,3.985 245.852,4.152 246.424 C 4.549 247.783,4.881 249.096,5.072 250.065 C 5.279 251.111,5.735 252.806,5.982 253.446 C 6.092 253.732,6.327 254.493,6.502 255.137 C 6.873 256.491,6.933 256.692,8.072 260.338 C 9.563 265.115,10.172 266.949,10.535 267.750 C 10.729 268.179,11.080 269.116,11.315 269.831 C 11.549 270.546,11.920 271.541,12.139 272.042 C 12.358 272.542,12.656 273.244,12.801 273.602 C 12.946 273.960,13.168 274.455,13.294 274.704 C 13.421 274.952,13.524 275.334,13.524 275.553 C 13.524 275.771,13.631 276.153,13.762 276.401 C 13.893 276.650,14.173 277.263,14.384 277.763 C 14.596 278.264,15.053 279.317,15.400 280.104 C 15.748 280.891,16.196 281.944,16.396 282.445 C 16.842 283.559,23.086 295.954,23.930 297.399 C 24.265 297.971,24.816 298.986,25.155 299.654 C 25.495 300.321,25.943 301.008,26.150 301.181 C 26.358 301.353,26.528 301.585,26.528 301.696 C 26.528 301.927,28.327 304.940,29.426 306.549 C 29.835 307.147,30.169 307.708,30.169 307.797 C 30.169 307.977,32.006 310.780,32.801 311.815 C 33.084 312.183,33.880 313.362,34.570 314.434 C 35.259 315.507,36.073 316.643,36.377 316.959 C 36.682 317.275,36.931 317.613,36.931 317.709 C 36.931 318.024,42.640 325.481,43.284 326.008 C 43.459 326.151,43.947 326.746,44.368 327.329 C 45.076 328.311,46.254 329.669,50.308 334.175 C 54.783 339.149,63.723 347.896,67.750 351.239 C 68.609 351.952,69.347 352.613,69.390 352.709 C 69.434 352.805,70.429 353.622,71.601 354.524 C 72.773 355.427,73.966 356.383,74.252 356.650 C 75.339 357.661,84.386 364.291,86.029 365.280 C 86.267 365.423,87.635 366.315,89.069 367.262 C 95.381 371.429,102.866 375.748,108.453 378.444 C 116.162 382.165,118.250 383.163,118.726 383.355 C 119.012 383.470,120.028 383.927,120.985 384.370 C 121.941 384.813,122.850 385.176,123.004 385.176 C 123.158 385.176,123.487 385.279,123.736 385.405 C 124.342 385.713,125.294 386.097,126.398 386.476 C 126.899 386.649,127.776 387.003,128.349 387.264 C 129.560 387.816,132.417 388.836,135.371 389.770 C 136.515 390.131,137.654 390.533,137.903 390.662 C 138.151 390.792,138.567 390.897,138.826 390.897 C 139.086 390.897,139.409 390.994,139.545 391.112 C 139.681 391.230,140.319 391.478,140.962 391.662 C 141.606 391.847,142.425 392.088,142.783 392.198 C 143.140 392.308,143.960 392.542,144.603 392.718 C 145.247 392.894,146.066 393.128,146.424 393.238 C 147.245 393.490,149.140 393.996,150.325 394.278 C 150.826 394.398,151.733 394.622,152.341 394.777 C 152.949 394.932,153.943 395.183,154.551 395.336 C 155.159 395.489,156.016 395.723,156.455 395.856 C 156.895 395.990,157.603 396.099,158.029 396.099 C 158.455 396.099,158.915 396.205,159.051 396.334 C 159.187 396.463,159.824 396.632,160.468 396.709 C 161.646 396.849,163.138 397.131,165.540 397.664 C 166.255 397.823,167.601 398.065,168.531 398.202 C 170.500 398.491,172.657 398.831,175.033 399.224 C 178.707 399.833,182.628 399.945,200.520 399.950 C 219.950 399.955,222.220 399.856,229.129 398.697 C 230.059 398.541,231.463 398.356,232.250 398.285 C 233.036 398.214,233.914 398.051,234.200 397.923 C 234.486 397.794,235.189 397.631,235.761 397.561 C 236.333 397.490,237.386 397.301,238.101 397.139 C 238.817 396.978,239.870 396.788,240.442 396.717 C 241.014 396.647,241.717 396.488,242.003 396.364 C 242.526 396.137,243.101 395.998,245.254 395.579 C 245.897 395.454,246.921 395.227,247.529 395.075 C 248.137 394.923,249.132 394.674,249.740 394.522 C 250.348 394.371,251.169 394.181,251.564 394.102 C 251.959 394.023,252.346 393.855,252.424 393.728 C 252.502 393.602,252.962 393.498,253.446 393.498 C 253.930 393.498,254.398 393.381,254.486 393.238 C 254.575 393.095,254.934 392.978,255.285 392.978 C 255.637 392.978,256.127 392.872,256.375 392.743 C 256.624 392.614,257.354 392.364,257.997 392.188 C 259.898 391.668,262.255 390.891,262.740 390.625 C 262.989 390.489,263.421 390.377,263.700 390.377 C 263.980 390.377,264.281 390.260,264.369 390.117 C 264.458 389.974,264.759 389.857,265.038 389.857 C 265.318 389.857,265.750 389.751,265.998 389.622 C 266.247 389.493,266.977 389.235,267.620 389.049 C 268.264 388.863,269.175 388.500,269.644 388.244 C 270.113 387.987,270.671 387.776,270.883 387.776 C 271.095 387.776,271.472 387.668,271.720 387.536 C 271.968 387.403,272.991 386.984,273.992 386.603 C 274.993 386.223,276.222 385.734,276.723 385.517 C 277.224 385.300,277.867 385.029,278.153 384.914 C 278.440 384.800,279.434 384.362,280.364 383.941 C 281.294 383.520,282.715 382.915,283.522 382.596 C 285.481 381.823,294.526 377.244,297.819 375.359 C 298.336 375.063,299.008 374.693,299.314 374.537 C 300.703 373.826,301.167 373.559,303.121 372.350 C 304.265 371.641,305.579 370.847,306.041 370.584 C 307.174 369.939,314.962 364.671,316.905 363.234 C 317.763 362.600,319.109 361.634,319.896 361.089 C 321.392 360.052,322.586 359.105,327.958 354.701 C 333.445 350.202,335.304 348.514,341.973 341.982 C 343.792 340.200,348.085 335.582,350.418 332.898 C 351.971 331.111,353.498 329.356,353.812 328.999 C 354.126 328.641,355.187 327.295,356.170 326.008 C 357.153 324.720,358.288 323.323,358.692 322.903 C 359.097 322.482,359.428 322.036,359.428 321.912 C 359.428 321.788,359.761 321.254,360.167 320.726 C 360.574 320.198,361.459 319.005,362.133 318.075 C 362.807 317.146,363.540 316.164,363.763 315.893 C 363.985 315.622,364.849 314.335,365.682 313.032 C 366.515 311.729,367.573 310.141,368.032 309.502 C 369.153 307.945,372.753 302.033,374.056 299.610 C 374.633 298.537,375.612 296.723,376.231 295.579 C 377.376 293.462,382.184 283.783,382.562 282.835 C 382.676 282.549,383.033 281.730,383.355 281.014 C 383.677 280.299,384.031 279.480,384.141 279.194 C 384.251 278.908,384.636 278.030,384.997 277.243 C 385.862 275.359,386.996 272.529,386.996 272.254 C 386.996 272.134,387.242 271.481,387.542 270.803 C 388.385 268.902,388.500 268.606,388.831 267.490 C 389.001 266.918,389.243 266.247,389.369 265.998 C 389.494 265.750,389.597 265.334,389.597 265.075 C 389.597 264.816,389.693 264.492,389.810 264.356 C 389.927 264.220,390.409 262.880,390.881 261.378 C 391.353 259.876,391.829 258.414,391.939 258.127 C 392.049 257.841,392.277 257.081,392.446 256.437 C 392.615 255.793,392.862 254.907,392.996 254.468 C 393.129 254.029,393.238 253.421,393.238 253.118 C 393.238 252.815,393.355 252.494,393.498 252.406 C 393.641 252.317,393.758 251.966,393.758 251.625 C 393.758 251.285,393.862 250.942,393.989 250.863 C 394.117 250.784,394.284 250.339,394.361 249.872 C 394.438 249.406,394.633 248.498,394.794 247.854 C 394.955 247.211,395.191 246.216,395.319 245.644 C 395.446 245.072,395.680 244.077,395.839 243.433 C 396.751 239.732,397.646 235.383,397.818 233.810 C 397.889 233.166,398.051 232.406,398.178 232.120 C 398.306 231.834,398.472 231.131,398.547 230.559 C 398.704 229.368,399.079 226.957,399.517 224.317 C 399.950 221.704,399.942 176.614,399.508 174.252 C 399.337 173.322,399.093 171.684,398.965 170.611 C 398.838 169.538,398.613 168.075,398.465 167.360 C 397.806 164.172,397.450 162.200,396.974 159.101 C 396.892 158.564,396.719 158.059,396.592 157.980 C 396.464 157.901,396.359 157.441,396.359 156.957 C 396.359 156.473,396.254 156.013,396.126 155.934 C 395.998 155.855,395.832 155.350,395.757 154.813 C 395.682 154.276,395.485 153.309,395.319 152.666 C 395.152 152.022,394.955 151.027,394.881 150.455 C 394.806 149.883,394.640 149.304,394.512 149.168 C 394.383 149.032,394.278 148.696,394.278 148.422 C 394.278 147.970,393.478 145.251,392.963 143.953 C 392.850 143.667,392.684 143.082,392.596 142.653 C 392.157 140.528,391.992 139.955,391.592 139.152 C 391.353 138.673,391.157 138.109,391.157 137.897 C 391.157 137.366,389.597 132.826,389.310 132.523 C 389.182 132.387,389.077 132.063,389.077 131.804 C 389.077 131.545,388.960 131.100,388.817 130.816 C 388.674 130.532,388.440 130.067,388.296 129.782 C 388.153 129.498,388.036 129.054,388.036 128.794 C 388.036 128.535,387.938 128.211,387.817 128.075 C 387.696 127.940,387.336 127.126,387.016 126.268 C 386.696 125.410,386.327 124.504,386.195 124.256 C 386.063 124.007,385.956 123.674,385.956 123.515 C 385.956 123.356,385.476 122.214,384.890 120.976 C 384.304 119.738,383.729 118.492,383.613 118.205 C 382.524 115.515,377.813 105.905,376.601 103.901 C 376.168 103.186,375.521 102.016,375.164 101.300 C 374.520 100.012,374.280 99.598,373.416 98.283 C 373.171 97.910,372.584 96.915,372.111 96.071 C 370.138 92.548,366.201 86.464,364.388 84.135 C 363.720 83.277,362.745 81.931,362.222 81.144 C 361.699 80.358,361.002 79.421,360.674 79.063 C 360.346 78.705,359.552 77.710,358.908 76.852 C 358.265 75.995,357.676 75.234,357.599 75.163 C 357.522 75.091,356.706 74.096,355.787 72.952 C 354.867 71.808,354.049 70.813,353.969 70.741 C 353.889 70.670,353.020 69.675,352.039 68.531 C 345.693 61.126,337.404 53.029,329.380 46.397 C 328.670 45.809,327.328 44.696,326.398 43.922 C 324.114 42.022,320.081 38.947,317.480 37.124 C 313.671 34.454,308.470 30.949,308.317 30.949 C 308.234 30.949,307.462 30.481,306.601 29.909 C 305.740 29.337,304.987 28.869,304.929 28.869 C 304.871 28.869,303.621 28.145,302.152 27.261 C 300.682 26.377,298.752 25.283,297.863 24.829 C 296.973 24.376,296.095 23.884,295.912 23.736 C 295.561 23.453,288.261 19.774,286.476 18.980 C 285.904 18.726,284.423 18.038,283.185 17.451 C 281.948 16.865,280.823 16.385,280.686 16.385 C 280.549 16.385,279.689 16.018,278.775 15.570 C 277.861 15.122,276.821 14.641,276.463 14.500 C 276.105 14.359,275.610 14.140,275.361 14.014 C 275.113 13.888,274.731 13.784,274.512 13.784 C 274.294 13.784,273.912 13.671,273.664 13.534 C 272.521 12.900,270.861 12.224,270.448 12.224 C 270.197 12.224,269.919 12.107,269.831 11.964 C 269.743 11.821,269.441 11.704,269.162 11.704 C 268.882 11.704,268.450 11.596,268.202 11.465 C 266.613 10.627,262.233 9.103,261.413 9.103 C 261.125 9.103,260.817 8.986,260.728 8.843 C 260.640 8.700,260.289 8.583,259.948 8.583 C 259.607 8.583,259.256 8.466,259.168 8.322 C 259.079 8.179,258.728 8.062,258.388 8.062 C 258.047 8.062,257.696 7.945,257.607 7.802 C 257.519 7.659,257.198 7.542,256.895 7.542 C 256.395 7.542,255.367 7.268,253.966 6.762 C 252.565 6.256,251.537 5.982,251.037 5.982 C 250.734 5.982,250.414 5.865,250.325 5.722 C 250.237 5.579,249.769 5.462,249.285 5.462 C 248.801 5.462,248.333 5.345,248.244 5.202 C 248.156 5.059,247.688 4.941,247.204 4.941 C 246.720 4.941,246.260 4.837,246.181 4.709 C 246.102 4.581,245.597 4.412,245.060 4.333 C 243.216 4.064,242.262 3.865,241.743 3.643 C 241.037 3.341,239.896 3.099,238.492 2.954 C 237.848 2.888,237.087 2.729,236.801 2.602 C 236.515 2.475,235.813 2.311,235.241 2.239 C 234.668 2.166,233.557 1.978,232.770 1.820 C 231.983 1.663,230.608 1.423,229.714 1.287 C 225.264 0.612,224.435 0.493,222.627 0.274 C 220.134 -0.029,178.540 0.000,176.463 0.306 M216.385 19.609 C 218.459 19.823,220.624 20.060,221.196 20.135 C 221.769 20.211,223.290 20.403,224.577 20.562 C 262.248 25.210,299.666 43.788,327.723 71.772 C 407.231 151.075,396.190 282.466,304.551 347.497 C 281.068 364.162,250.740 376.117,224.187 379.175 C 211.295 380.660,208.052 380.843,197.399 380.683 C 103.755 379.280,26.135 306.896,19.262 214.564 C 19.108 212.490,18.916 209.996,18.836 209.022 C 18.642 206.654,18.652 192.971,18.850 190.294 C 19.832 176.998,21.065 168.381,23.402 158.473 C 38.820 93.116,88.907 41.810,153.966 24.729 C 164.604 21.936,176.674 19.984,187.832 19.253 C 193.047 18.911,211.893 19.146,216.385 19.609 M117.165 132.669 C 103.715 134.235,92.462 146.546,87.951 164.629 C 84.643 177.887,86.230 182.913,94.324 184.822 C 98.367 185.775,103.210 183.320,105.090 179.363 C 105.785 177.901,105.971 177.032,106.628 172.172 C 107.727 164.040,111.954 156.028,116.285 153.870 C 119.513 152.261,125.274 154.465,128.640 158.597 C 131.254 161.807,131.963 164.019,133.029 172.302 C 134.151 181.011,138.205 184.867,145.358 184.026 C 148.653 183.639,153.152 179.267,154.327 175.310 C 156.080 169.406,152.152 154.827,146.722 147.083 C 140.010 137.512,127.590 131.455,117.165 132.669 M268.921 133.933 C 255.673 136.709,246.597 146.627,243.554 161.656 C 240.879 174.870,249.352 183.450,258.458 176.746 C 260.463 175.270,261.601 173.127,262.543 169.051 C 262.923 167.406,263.464 165.065,263.745 163.849 C 265.618 155.747,270.723 152.053,277.633 153.802 C 288.147 156.464,292.534 162.075,293.381 173.945 C 293.797 179.784,294.575 181.667,297.338 183.527 C 303.254 187.509,310.924 184.810,313.025 178.008 C 314.255 174.025,313.604 163.734,311.793 158.518 C 305.901 141.554,286.272 130.298,268.921 133.933 M229.361 232.862 C 225.305 234.530,224.076 236.549,222.075 244.830 C 218.672 258.909,212.142 266.299,200.983 268.703 C 197.756 269.399,189.303 269.552,186.606 268.964 C 174.094 266.237,166.733 258.786,161.382 243.431 C 158.485 235.116,154.971 232.717,148.244 234.461 C 140.517 236.463,139.348 241.183,143.476 253.706 C 158.706 299.905,223.708 302.759,239.904 257.941 C 242.342 251.193,243.545 242.880,242.569 239.522 C 241.002 234.131,234.386 230.795,229.361 232.862 " stroke="none" fill="#340524" fill-rule="evenodd"></path><path id="path1" d="M187.832 19.253 C 182.007 19.635,174.461 20.544,168.406 21.593 C 93.864 34.508,34.825 93.272,21.477 167.835 C 20.241 174.740,19.584 180.356,18.850 190.294 C 18.652 192.971,18.642 206.654,18.836 209.022 C 18.916 209.996,19.108 212.490,19.262 214.564 C 26.721 314.773,118.726 391.044,218.596 379.810 C 220.455 379.601,222.971 379.315,224.187 379.175 C 250.740 376.117,281.068 364.162,304.551 347.497 C 396.190 282.466,407.231 151.075,327.723 71.772 C 299.666 43.788,262.248 25.210,224.577 20.562 C 223.290 20.403,221.769 20.211,221.196 20.135 C 214.231 19.216,195.820 18.729,187.832 19.253 M125.611 133.161 C 142.039 136.545,154.690 153.381,154.741 171.929 C 154.756 177.352,150.002 183.481,145.358 184.026 C 138.205 184.867,134.151 181.011,133.029 172.302 C 131.963 164.019,131.254 161.807,128.640 158.597 C 125.274 154.465,119.513 152.261,116.285 153.870 C 111.954 156.028,107.727 164.040,106.628 172.172 C 105.971 177.032,105.785 177.901,105.090 179.363 C 103.210 183.320,98.367 185.775,94.324 184.822 C 86.230 182.913,84.643 177.887,87.951 164.629 C 93.510 142.345,108.675 129.673,125.611 133.161 M281.539 133.788 C 297.377 136.575,309.165 147.331,312.917 162.419 C 313.719 165.647,313.788 175.537,313.025 178.008 C 310.924 184.810,303.254 187.509,297.338 183.527 C 294.575 181.667,293.797 179.784,293.381 173.945 C 292.534 162.075,288.147 156.464,277.633 153.802 C 270.723 152.053,265.618 155.747,263.745 163.849 C 263.464 165.065,262.923 167.406,262.543 169.051 C 261.601 173.127,260.463 175.270,258.458 176.746 C 249.352 183.450,240.879 174.870,243.554 161.656 C 247.550 141.921,263.067 130.537,281.539 133.788 M235.533 232.660 C 240.562 234.122,243.137 238.108,242.827 243.950 C 241.931 260.852,231.400 277.379,216.984 284.510 C 188.023 298.836,153.598 284.409,143.476 253.706 C 139.348 241.183,140.517 236.463,148.244 234.461 C 154.971 232.717,158.485 235.116,161.382 243.431 C 165.525 255.319,170.699 262.180,178.544 266.185 C 187.394 270.704,200.780 270.523,208.593 265.778 C 215.771 261.418,219.446 255.709,222.075 244.830 C 223.397 239.360,224.160 237.307,225.501 235.613 C 227.770 232.749,231.779 231.569,235.533 232.660 " stroke="none" fill="#24cbeb" fill-rule="evenodd"></path></g></svg>