<svg id="svg" version="1.1" xmlns="http://www.w3.org/2000/svg" xmlns:xlink="http://www.w3.org/1999/xlink" width="400" height="400" viewBox="0, 0, 400,400"><g id="svgg"><path id="path0" d="M180.052 0.176 C 178.970 0.227,177.848 0.380,177.559 0.516 C 177.270 0.653,176.385 0.823,175.591 0.896 C 173.641 1.074,168.900 1.812,166.142 2.366 C 165.348 2.525,164.167 2.719,163.517 2.797 C 162.867 2.874,162.224 3.045,162.087 3.175 C 161.949 3.305,161.336 3.412,160.724 3.412 C 160.112 3.412,159.538 3.530,159.449 3.675 C 159.360 3.819,158.887 3.937,158.399 3.937 C 157.911 3.937,157.438 4.055,157.349 4.199 C 157.260 4.344,156.728 4.462,156.168 4.462 C 155.608 4.462,155.076 4.580,154.987 4.724 C 154.898 4.869,154.425 4.987,153.937 4.987 C 153.449 4.987,152.984 5.093,152.904 5.222 C 152.824 5.351,152.316 5.523,151.773 5.605 C 149.471 5.953,148.806 6.108,148.670 6.328 C 148.590 6.457,148.185 6.562,147.769 6.562 C 147.353 6.562,146.940 6.680,146.850 6.824 C 146.761 6.969,146.407 7.087,146.063 7.087 C 145.719 7.087,145.365 7.205,145.276 7.349 C 145.186 7.493,144.773 7.612,144.357 7.612 C 143.941 7.612,143.528 7.730,143.438 7.874 C 143.349 8.018,142.936 8.136,142.520 8.136 C 142.104 8.136,141.690 8.255,141.601 8.399 C 141.512 8.543,141.158 8.661,140.814 8.661 C 140.470 8.661,140.115 8.780,140.026 8.924 C 139.937 9.068,139.583 9.186,139.239 9.186 C 138.895 9.186,138.541 9.304,138.451 9.449 C 138.362 9.593,138.008 9.711,137.664 9.711 C 137.320 9.711,136.966 9.829,136.877 9.974 C 136.787 10.118,136.433 10.236,136.089 10.236 C 135.745 10.236,135.391 10.354,135.302 10.499 C 135.213 10.643,134.858 10.761,134.514 10.761 C 134.171 10.761,133.816 10.879,133.727 11.024 C 133.638 11.168,133.334 11.286,133.052 11.286 C 132.770 11.286,132.334 11.390,132.083 11.518 C 131.244 11.945,129.974 12.454,127.428 13.386 C 126.562 13.703,125.558 14.084,125.197 14.234 C 124.836 14.384,124.304 14.593,124.016 14.699 C 123.727 14.805,122.736 15.261,121.814 15.713 C 120.891 16.166,120.027 16.535,119.894 16.535 C 119.761 16.535,118.862 16.897,117.897 17.339 C 116.144 18.141,115.541 18.427,110.105 21.025 C 108.517 21.784,106.745 22.715,106.168 23.094 C 105.591 23.473,103.966 24.356,102.557 25.056 C 101.149 25.756,99.865 26.487,99.704 26.681 C 99.543 26.875,99.299 27.034,99.162 27.034 C 99.025 27.034,98.398 27.388,97.769 27.822 C 97.140 28.255,96.559 28.609,96.480 28.609 C 96.400 28.609,95.535 29.085,94.558 29.666 C 92.373 30.967,92.734 30.735,89.468 32.940 C 87.970 33.950,86.556 34.895,86.324 35.039 C 84.943 35.899,83.805 36.729,83.494 37.103 C 83.298 37.340,83.020 37.533,82.877 37.533 C 82.733 37.533,82.227 37.858,81.753 38.255 C 81.278 38.652,80.389 39.331,79.777 39.764 C 78.190 40.887,74.987 43.396,72.994 45.079 C 72.438 45.548,71.889 45.932,71.773 45.932 C 71.657 45.932,70.707 46.729,69.662 47.703 C 68.618 48.678,66.248 50.833,64.396 52.493 C 57.833 58.377,48.475 68.233,44.226 73.736 C 43.648 74.484,42.644 75.731,41.995 76.507 C 41.345 77.284,40.459 78.405,40.026 79.000 C 39.593 79.594,38.914 80.473,38.517 80.954 C 38.120 81.435,37.795 81.904,37.795 81.998 C 37.795 82.091,37.227 82.902,36.532 83.800 C 35.188 85.538,29.921 93.335,29.921 93.587 C 29.921 93.670,29.567 94.252,29.134 94.882 C 28.701 95.511,28.346 96.102,28.346 96.194 C 28.346 96.287,27.992 96.877,27.559 97.507 C 27.126 98.136,26.772 98.727,26.772 98.819 C 26.772 98.911,26.439 99.481,26.033 100.084 C 25.627 100.687,24.975 101.831,24.584 102.625 C 24.193 103.419,23.526 104.659,23.102 105.381 C 22.328 106.698,17.442 116.470,17.065 117.454 C 16.955 117.743,16.598 118.570,16.273 119.291 C 15.948 120.013,15.593 120.840,15.486 121.129 C 15.378 121.417,15.023 122.244,14.698 122.966 C 14.373 123.688,14.019 124.514,13.913 124.803 C 13.616 125.607,13.088 126.851,12.830 127.359 C 12.703 127.609,12.598 127.940,12.598 128.093 C 12.598 128.246,12.362 128.861,12.073 129.458 C 11.785 130.056,11.549 130.701,11.549 130.893 C 11.549 131.231,11.430 131.525,10.802 132.739 C 10.635 133.062,10.499 133.557,10.499 133.839 C 10.499 134.121,10.381 134.425,10.236 134.514 C 10.092 134.604,9.974 134.958,9.974 135.302 C 9.974 135.646,9.856 136.000,9.711 136.089 C 9.567 136.178,9.449 136.533,9.449 136.877 C 9.449 137.220,9.331 137.575,9.186 137.664 C 9.042 137.753,8.924 138.108,8.924 138.451 C 8.924 138.795,8.806 139.150,8.661 139.239 C 8.517 139.328,8.399 139.682,8.399 140.026 C 8.399 140.370,8.281 140.724,8.136 140.814 C 7.992 140.903,7.874 141.266,7.874 141.620 C 7.874 141.974,7.770 142.469,7.644 142.720 C 7.261 143.478,6.824 145.016,6.824 145.607 C 6.824 145.913,6.706 146.236,6.562 146.325 C 6.417 146.415,6.299 146.828,6.299 147.244 C 6.299 147.660,6.181 148.074,6.037 148.163 C 5.892 148.252,5.774 148.665,5.774 149.081 C 5.774 149.497,5.656 149.911,5.512 150.000 C 5.367 150.089,5.249 150.562,5.249 151.050 C 5.249 151.538,5.144 152.003,5.015 152.083 C 4.885 152.162,4.716 152.671,4.638 153.214 C 4.560 153.756,4.363 154.790,4.199 155.512 C 4.036 156.234,3.839 157.268,3.761 157.810 C 3.683 158.352,3.513 158.861,3.384 158.941 C 3.255 159.021,3.150 159.604,3.150 160.236 C 3.150 160.869,3.031 161.459,2.887 161.549 C 2.743 161.638,2.625 162.228,2.625 162.861 C 2.625 163.493,2.507 164.084,2.362 164.173 C 2.218 164.262,2.100 164.853,2.100 165.486 C 2.100 166.118,1.982 166.709,1.837 166.798 C 1.693 166.887,1.575 167.596,1.575 168.373 C 1.575 169.150,1.457 169.858,1.312 169.948 C 1.168 170.037,1.050 170.863,1.050 171.785 C 1.050 172.706,0.932 173.533,0.787 173.622 C 0.643 173.711,0.525 174.538,0.525 175.459 C 0.525 176.381,0.407 177.207,0.262 177.297 C -0.100 177.520,-0.100 223.004,0.262 223.228 C 0.407 223.318,0.525 224.144,0.525 225.066 C 0.525 225.987,0.643 226.814,0.787 226.903 C 0.932 226.992,1.050 227.819,1.050 228.740 C 1.050 229.661,1.168 230.488,1.312 230.577 C 1.457 230.667,1.575 231.375,1.575 232.152 C 1.575 232.929,1.693 233.638,1.837 233.727 C 1.982 233.816,2.100 234.407,2.100 235.039 C 2.100 235.672,2.218 236.262,2.362 236.352 C 2.507 236.441,2.625 237.031,2.625 237.664 C 2.625 238.297,2.743 238.887,2.887 238.976 C 3.031 239.066,3.150 239.656,3.150 240.289 C 3.150 240.921,3.268 241.512,3.412 241.601 C 3.556 241.690,3.675 242.222,3.675 242.782 C 3.675 243.343,3.780 243.866,3.909 243.946 C 4.038 244.026,4.216 244.564,4.303 245.143 C 4.390 245.721,4.533 246.667,4.621 247.246 C 4.708 247.824,4.885 248.363,5.015 248.442 C 5.144 248.522,5.249 248.987,5.249 249.475 C 5.249 249.963,5.367 250.436,5.512 250.525 C 5.656 250.614,5.774 251.028,5.774 251.444 C 5.774 251.860,5.892 252.273,6.037 252.362 C 6.181 252.451,6.299 252.865,6.299 253.281 C 6.299 253.697,6.417 254.110,6.562 254.199 C 6.706 254.289,6.824 254.702,6.824 255.118 C 6.824 255.534,6.942 255.948,7.087 256.037 C 7.231 256.126,7.349 256.539,7.349 256.955 C 7.349 257.371,7.467 257.785,7.612 257.874 C 7.756 257.963,7.874 258.318,7.874 258.661 C 7.874 259.005,7.992 259.360,8.136 259.449 C 8.281 259.538,8.399 259.892,8.399 260.236 C 8.399 260.580,8.517 260.934,8.661 261.024 C 8.806 261.113,8.924 261.467,8.924 261.811 C 8.924 262.155,9.042 262.509,9.186 262.598 C 9.331 262.688,9.449 263.101,9.449 263.517 C 9.449 263.933,9.567 264.346,9.711 264.436 C 9.856 264.525,9.974 264.879,9.974 265.223 C 9.974 265.567,10.092 265.921,10.236 266.010 C 10.381 266.100,10.499 266.404,10.499 266.686 C 10.499 267.181,10.593 267.437,11.245 268.697 C 11.412 269.020,11.549 269.459,11.549 269.673 C 11.549 269.888,11.785 270.483,12.073 270.997 C 12.362 271.511,12.598 272.107,12.598 272.321 C 12.598 272.535,12.703 272.916,12.830 273.166 C 13.085 273.666,13.674 275.091,14.402 276.969 C 14.529 277.293,14.898 278.150,15.223 278.871 C 15.548 279.593,15.903 280.420,16.010 280.709 C 16.634 282.379,21.923 293.147,23.101 295.144 C 23.526 295.866,24.351 297.418,24.933 298.592 C 25.514 299.767,26.166 300.874,26.381 301.052 C 26.596 301.231,26.772 301.489,26.772 301.625 C 26.772 301.762,27.106 302.368,27.515 302.971 C 27.924 303.575,28.338 304.245,28.435 304.462 C 28.533 304.678,29.083 305.564,29.658 306.430 C 30.233 307.297,30.810 308.246,30.941 308.541 C 31.072 308.836,31.368 309.234,31.600 309.426 C 31.832 309.618,32.021 309.920,32.021 310.096 C 32.021 310.273,32.257 310.631,32.546 310.892 C 32.835 311.154,33.071 311.508,33.071 311.680 C 33.071 311.852,33.307 312.206,33.596 312.467 C 33.885 312.728,34.121 313.083,34.121 313.255 C 34.121 313.426,34.357 313.781,34.646 314.042 C 34.934 314.303,35.171 314.615,35.171 314.735 C 35.171 314.855,36.087 316.166,37.207 317.647 C 38.327 319.129,39.447 320.659,39.696 321.046 C 39.944 321.434,40.829 322.577,41.662 323.585 C 42.495 324.594,43.707 326.099,44.357 326.929 C 45.007 327.760,46.196 329.157,46.999 330.033 C 47.803 330.910,48.727 331.982,49.053 332.415 C 49.916 333.561,57.078 341.093,58.912 342.782 C 59.774 343.576,61.783 345.475,63.376 347.002 C 64.969 348.529,66.612 350.034,67.026 350.345 C 67.440 350.657,68.644 351.710,69.701 352.687 C 70.759 353.663,72.192 354.873,72.885 355.376 C 74.267 356.377,75.835 357.627,77.519 359.070 C 78.119 359.584,79.302 360.469,80.148 361.039 C 80.995 361.608,82.060 362.324,82.515 362.629 C 82.970 362.935,83.503 363.378,83.698 363.614 C 83.894 363.849,84.196 364.042,84.370 364.042 C 84.543 364.042,84.972 364.347,85.322 364.721 C 85.672 365.094,86.441 365.620,87.031 365.889 C 87.620 366.158,88.255 366.561,88.441 366.785 C 88.626 367.009,88.923 367.192,89.099 367.192 C 89.276 367.192,89.634 367.428,89.895 367.717 C 90.156 368.005,90.511 368.241,90.682 368.241 C 90.854 368.241,91.209 368.478,91.470 368.766 C 91.731 369.055,92.089 369.291,92.266 369.291 C 92.442 369.291,92.735 369.471,92.917 369.690 C 93.099 369.909,93.675 370.285,94.196 370.525 C 94.718 370.766,95.638 371.295,96.242 371.702 C 96.845 372.108,97.411 372.441,97.500 372.441 C 97.589 372.441,98.537 373.031,99.606 373.753 C 100.676 374.475,101.669 375.066,101.814 375.066 C 101.958 375.066,102.643 375.393,103.335 375.792 C 104.027 376.192,105.184 376.806,105.906 377.156 C 106.627 377.506,107.454 377.987,107.743 378.224 C 108.031 378.461,108.681 378.805,109.186 378.989 C 109.692 379.173,111.818 380.150,113.911 381.162 C 116.004 382.173,117.953 383.090,118.241 383.199 C 118.530 383.309,119.357 383.664,120.079 383.990 C 120.801 384.315,121.627 384.670,121.916 384.778 C 122.205 384.886,123.209 385.327,124.147 385.757 C 125.085 386.187,126.325 386.682,126.903 386.857 C 127.480 387.031,128.219 387.284,128.543 387.419 C 128.868 387.554,129.459 387.796,129.856 387.957 C 130.253 388.118,130.783 388.355,131.033 388.482 C 131.284 388.610,131.664 388.714,131.878 388.714 C 132.092 388.714,132.688 388.950,133.202 389.239 C 133.716 389.528,134.421 389.764,134.769 389.764 C 135.117 389.764,135.475 389.882,135.564 390.026 C 135.654 390.171,135.957 390.289,136.240 390.289 C 136.522 390.289,136.958 390.392,137.208 390.519 C 137.459 390.646,138.136 390.890,138.714 391.061 C 139.784 391.379,140.716 391.742,141.532 392.157 C 141.783 392.284,142.278 392.388,142.632 392.388 C 142.986 392.388,143.349 392.507,143.438 392.651 C 143.528 392.795,144.000 392.913,144.488 392.913 C 144.976 392.913,145.449 393.031,145.538 393.176 C 145.627 393.320,146.041 393.438,146.457 393.438 C 146.873 393.438,147.286 393.556,147.375 393.701 C 147.465 393.845,147.827 393.963,148.182 393.963 C 148.536 393.963,149.031 394.067,149.282 394.194 C 150.149 394.631,151.615 395.013,152.431 395.013 C 152.881 395.013,153.323 395.131,153.412 395.276 C 153.501 395.420,153.974 395.538,154.462 395.538 C 154.950 395.538,155.415 395.644,155.495 395.773 C 155.574 395.902,156.083 396.075,156.626 396.156 C 158.928 396.504,159.593 396.659,159.729 396.879 C 159.809 397.008,160.509 397.113,161.286 397.113 C 162.063 397.113,162.772 397.231,162.861 397.375 C 162.950 397.520,163.541 397.638,164.173 397.638 C 164.806 397.638,165.396 397.756,165.486 397.900 C 165.575 398.045,166.165 398.163,166.798 398.163 C 167.430 398.163,168.021 398.281,168.110 398.425 C 168.199 398.570,168.849 398.688,169.554 398.688 C 170.259 398.688,170.908 398.806,170.997 398.950 C 171.087 399.094,171.956 399.213,172.929 399.213 C 173.994 399.213,174.829 399.343,175.026 399.541 C 175.284 399.799,180.765 399.869,200.656 399.869 C 220.548 399.869,226.028 399.799,226.286 399.541 C 226.482 399.344,227.311 399.213,228.346 399.213 C 229.299 399.213,230.191 399.106,230.328 398.976 C 230.465 398.845,231.109 398.674,231.759 398.594 C 232.408 398.515,233.648 398.321,234.514 398.163 C 235.381 398.005,236.621 397.811,237.270 397.731 C 237.920 397.652,238.564 397.480,238.701 397.350 C 238.838 397.220,239.519 397.113,240.214 397.113 C 240.908 397.113,241.682 397.009,241.933 396.883 C 242.750 396.470,244.248 396.063,244.951 396.063 C 245.329 396.063,245.711 395.945,245.801 395.801 C 245.890 395.656,246.362 395.538,246.850 395.538 C 247.339 395.538,247.811 395.420,247.900 395.276 C 247.989 395.131,248.567 395.013,249.184 395.013 C 249.801 395.013,250.387 394.932,250.486 394.833 C 250.774 394.545,252.572 393.972,253.200 393.967 C 253.516 393.965,253.848 393.845,253.937 393.701 C 254.026 393.556,254.440 393.438,254.856 393.438 C 255.272 393.438,255.685 393.320,255.774 393.176 C 255.863 393.031,256.336 392.913,256.824 392.913 C 257.312 392.913,257.785 392.795,257.874 392.651 C 257.963 392.507,258.321 392.388,258.669 392.388 C 259.017 392.388,259.722 392.152,260.236 391.864 C 260.750 391.575,261.396 391.339,261.672 391.339 C 261.948 391.339,262.247 391.220,262.336 391.076 C 262.425 390.932,262.780 390.814,263.123 390.814 C 263.467 390.814,263.822 390.696,263.911 390.551 C 264.000 390.407,264.354 390.289,264.698 390.289 C 265.042 390.289,265.396 390.171,265.486 390.026 C 265.575 389.882,265.984 389.764,266.395 389.764 C 266.806 389.764,267.655 389.511,268.282 389.202 C 268.909 388.892,269.718 388.524,270.079 388.384 C 270.440 388.243,270.940 388.023,271.191 387.896 C 271.441 387.768,271.803 387.664,271.994 387.664 C 272.186 387.664,272.831 387.428,273.429 387.139 C 274.026 386.850,274.669 386.615,274.856 386.615 C 275.044 386.615,275.669 386.389,276.247 386.112 C 278.425 385.066,280.741 384.033,281.627 383.713 C 282.133 383.530,282.658 383.281,282.795 383.160 C 282.932 383.039,283.302 382.940,283.616 382.940 C 283.931 382.940,284.339 382.757,284.524 382.535 C 284.709 382.312,285.491 381.839,286.262 381.485 C 287.957 380.705,290.350 379.619,291.601 379.062 C 292.106 378.836,292.697 378.505,292.913 378.325 C 293.247 378.049,294.317 377.470,298.294 375.412 C 298.583 375.263,299.232 374.930,299.738 374.672 C 300.243 374.414,300.892 374.000,301.181 373.753 C 301.470 373.506,302.119 373.082,302.625 372.810 C 303.130 372.538,303.720 372.177,303.937 372.007 C 304.154 371.838,304.980 371.360,305.774 370.945 C 306.568 370.531,307.863 369.723,308.652 369.151 C 309.441 368.578,311.154 367.439,312.458 366.619 C 314.700 365.210,315.916 364.335,317.955 362.664 C 318.439 362.267,318.946 361.942,319.080 361.942 C 319.214 361.942,319.664 361.588,320.079 361.155 C 320.494 360.722,320.959 360.367,321.112 360.367 C 321.266 360.367,321.833 359.983,322.374 359.514 C 322.914 359.045,324.012 358.130,324.813 357.480 C 325.614 356.831,326.721 355.915,327.274 355.446 C 327.827 354.977,328.371 354.593,328.484 354.593 C 328.721 354.593,332.058 351.515,337.232 346.522 C 339.215 344.610,340.959 343.045,341.108 343.045 C 341.440 343.045,342.520 341.924,342.520 341.579 C 342.520 341.441,343.713 340.150,345.172 338.709 C 346.631 337.268,348.299 335.499,348.879 334.777 C 349.459 334.055,350.808 332.520,351.875 331.365 C 352.943 330.210,354.407 328.497,355.128 327.559 C 355.849 326.621,356.892 325.262,357.445 324.540 C 357.998 323.818,358.645 323.066,358.884 322.868 C 359.122 322.670,359.318 322.406,359.318 322.281 C 359.318 322.156,360.233 320.834,361.352 319.342 C 362.470 317.851,363.504 316.449,363.648 316.227 C 363.793 316.005,365.003 314.215,366.339 312.249 C 367.674 310.284,368.766 308.572,368.766 308.447 C 368.766 308.321,369.003 308.004,369.291 307.743 C 369.580 307.481,369.816 307.160,369.816 307.028 C 369.816 306.896,370.171 306.272,370.604 305.643 C 371.037 305.014,371.391 304.419,371.391 304.321 C 371.391 304.224,371.745 303.619,372.178 302.978 C 372.612 302.336,372.966 301.717,372.966 301.602 C 372.966 301.488,373.202 301.180,373.491 300.919 C 373.780 300.657,374.016 300.249,374.016 300.012 C 374.016 299.774,374.126 299.468,374.261 299.331 C 374.396 299.194,375.119 297.900,375.867 296.457 C 376.615 295.013,377.450 293.519,377.721 293.135 C 377.993 292.752,378.215 292.339,378.214 292.217 C 378.213 292.095,379.170 290.046,380.340 287.664 C 381.510 285.282,382.562 283.097,382.677 282.808 C 382.961 282.095,383.554 280.711,384.252 279.134 C 384.571 278.412,385.007 277.408,385.220 276.903 C 385.434 276.398,385.717 275.779,385.849 275.528 C 385.981 275.278,386.089 274.952,386.089 274.804 C 386.089 274.656,386.311 274.034,386.583 273.422 C 386.855 272.810,387.221 271.896,387.397 271.391 C 387.714 270.481,387.960 269.843,388.434 268.701 C 388.569 268.376,388.829 267.638,389.013 267.060 C 389.196 266.483,389.440 265.898,389.555 265.761 C 389.670 265.624,389.764 265.298,389.764 265.036 C 389.764 264.774,389.868 264.355,389.996 264.104 C 390.124 263.853,390.484 262.822,390.797 261.811 C 391.110 260.801,391.464 259.738,391.585 259.449 C 391.705 259.160,391.926 258.451,392.076 257.874 C 392.225 257.297,392.546 256.175,392.789 255.381 C 393.032 254.587,393.336 253.553,393.466 253.084 C 393.595 252.615,393.827 251.788,393.981 251.247 C 394.249 250.302,394.423 249.627,395.025 247.178 C 395.176 246.565,395.412 245.620,395.550 245.079 C 396.193 242.554,396.376 241.772,396.613 240.551 C 396.753 239.829,396.982 238.678,397.121 237.992 C 397.261 237.306,397.488 236.184,397.626 235.499 C 397.763 234.813,398.007 233.661,398.166 232.940 C 398.325 232.218,398.568 230.860,398.705 229.921 C 398.843 228.983,399.065 227.507,399.198 226.640 C 399.332 225.774,399.561 224.121,399.706 222.966 C 400.042 220.306,400.064 178.835,399.730 176.115 C 399.469 173.983,399.110 171.571,398.714 169.291 C 398.576 168.497,398.335 166.962,398.180 165.879 C 398.025 164.797,397.774 163.379,397.622 162.730 C 397.237 161.079,396.867 159.390,396.588 158.005 C 396.457 157.356,396.232 156.293,396.089 155.643 C 395.849 154.553,395.720 154.016,395.031 151.247 C 394.896 150.705,394.666 149.849,394.520 149.344 C 393.714 146.549,393.300 144.975,393.037 143.701 C 392.947 143.268,392.779 142.677,392.662 142.388 C 392.546 142.100,392.179 140.978,391.848 139.895 C 391.516 138.812,391.147 137.814,391.029 137.677 C 390.910 137.540,390.814 137.163,390.814 136.840 C 390.814 136.516,390.696 136.178,390.551 136.089 C 390.407 136.000,390.289 135.646,390.289 135.302 C 390.289 134.958,390.171 134.604,390.026 134.514 C 389.882 134.425,389.764 134.071,389.764 133.727 C 389.764 133.383,389.646 133.029,389.501 132.940 C 389.357 132.850,389.239 132.547,389.239 132.265 C 389.239 131.983,388.991 131.193,388.688 130.509 C 387.983 128.918,387.453 127.638,386.842 126.050 C 386.396 124.893,386.134 124.262,385.590 123.034 C 385.287 122.350,385.040 121.701,385.042 121.591 C 385.043 121.481,384.561 120.387,383.971 119.160 C 383.381 117.933,382.682 116.457,382.417 115.879 C 381.008 112.800,379.178 109.163,378.973 109.037 C 378.845 108.958,378.740 108.678,378.740 108.416 C 378.740 108.153,378.570 107.797,378.363 107.625 C 378.156 107.453,377.583 106.523,377.091 105.559 C 375.524 102.487,374.600 100.836,373.772 99.633 C 373.329 98.989,372.966 98.354,372.966 98.222 C 372.966 98.090,372.730 97.768,372.441 97.507 C 372.152 97.245,371.916 96.923,371.916 96.791 C 371.916 96.659,371.562 96.036,371.129 95.407 C 370.696 94.777,370.341 94.186,370.341 94.092 C 370.341 93.998,369.898 93.256,369.357 92.443 C 368.816 91.630,368.255 90.767,368.110 90.527 C 367.966 90.286,367.316 89.351,366.667 88.449 C 366.017 87.547,365.367 86.623,365.223 86.396 C 365.079 86.169,364.400 85.242,363.714 84.337 C 363.028 83.433,362.467 82.589,362.467 82.463 C 362.467 82.337,362.231 82.020,361.942 81.759 C 361.654 81.497,361.417 81.147,361.417 80.980 C 361.417 80.812,361.063 80.336,360.630 79.921 C 360.197 79.506,359.843 79.061,359.843 78.932 C 359.843 78.804,359.431 78.206,358.929 77.604 C 357.602 76.014,356.185 74.255,354.987 72.710 C 353.853 71.248,352.435 69.577,348.869 65.504 C 345.918 62.133,335.858 51.864,334.575 50.914 C 334.030 50.510,332.613 49.288,331.425 48.198 C 329.032 46.001,326.886 44.174,325.065 42.782 C 324.403 42.277,323.410 41.480,322.857 41.010 C 322.305 40.541,321.763 40.157,321.654 40.157 C 321.460 40.157,320.600 39.473,318.274 37.467 C 317.646 36.926,317.017 36.483,316.875 36.483 C 316.733 36.483,316.403 36.247,316.142 35.958 C 315.880 35.669,315.526 35.433,315.354 35.433 C 315.183 35.433,314.828 35.197,314.567 34.908 C 314.306 34.619,313.951 34.383,313.780 34.383 C 313.608 34.383,313.253 34.147,312.992 33.858 C 312.731 33.570,312.377 33.333,312.205 33.333 C 312.033 33.333,311.679 33.097,311.417 32.808 C 311.156 32.520,310.798 32.283,310.621 32.283 C 310.445 32.283,310.144 32.094,309.952 31.863 C 309.502 31.321,307.229 29.869,305.057 28.737 C 304.118 28.247,303.157 27.694,302.922 27.506 C 302.686 27.319,302.212 27.007,301.867 26.813 C 301.522 26.619,300.814 26.216,300.292 25.917 C 298.819 25.074,294.270 22.723,289.370 20.273 C 283.213 17.194,282.931 17.060,282.580 17.060 C 282.410 17.060,281.564 16.710,280.702 16.281 C 279.840 15.853,278.998 15.498,278.832 15.494 C 278.667 15.489,277.857 15.131,277.034 14.698 C 276.211 14.265,275.320 13.911,275.054 13.911 C 274.789 13.911,274.499 13.793,274.409 13.648 C 274.320 13.504,274.016 13.386,273.734 13.386 C 273.452 13.386,273.016 13.281,272.765 13.154 C 272.515 13.026,271.955 12.776,271.522 12.598 C 271.089 12.420,270.530 12.170,270.279 12.043 C 270.028 11.915,269.593 11.811,269.310 11.811 C 269.028 11.811,268.724 11.693,268.635 11.549 C 268.546 11.404,268.192 11.286,267.848 11.286 C 267.504 11.286,267.150 11.168,267.060 11.024 C 266.971 10.879,266.667 10.761,266.385 10.761 C 265.890 10.761,265.634 10.666,264.374 10.015 C 264.051 9.848,263.556 9.711,263.274 9.711 C 262.991 9.711,262.688 9.593,262.598 9.449 C 262.509 9.304,262.096 9.186,261.680 9.186 C 261.264 9.186,260.850 9.068,260.761 8.924 C 260.672 8.780,260.318 8.661,259.974 8.661 C 259.630 8.661,259.276 8.543,259.186 8.399 C 259.097 8.255,258.675 8.136,258.249 8.136 C 257.822 8.136,257.268 8.033,257.017 7.906 C 256.259 7.523,254.722 7.087,254.131 7.087 C 253.825 7.087,253.501 6.969,253.412 6.824 C 253.323 6.680,252.969 6.562,252.625 6.562 C 252.281 6.562,251.926 6.444,251.837 6.299 C 251.748 6.155,251.292 6.037,250.824 6.037 C 250.357 6.037,249.862 5.931,249.724 5.801 C 249.587 5.672,248.973 5.494,248.360 5.407 C 245.604 5.017,245.132 4.917,244.996 4.697 C 244.916 4.568,244.392 4.462,243.832 4.462 C 243.272 4.462,242.740 4.344,242.651 4.199 C 242.562 4.055,242.106 3.937,241.638 3.937 C 241.170 3.937,240.675 3.831,240.538 3.701 C 240.401 3.572,239.816 3.398,239.239 3.315 C 238.661 3.233,237.421 3.039,236.483 2.885 C 235.545 2.731,234.245 2.544,233.596 2.470 C 232.946 2.396,232.178 2.230,231.890 2.101 C 231.601 1.972,230.892 1.805,230.315 1.729 C 229.738 1.652,228.497 1.460,227.559 1.302 C 226.621 1.143,224.967 0.952,223.885 0.878 C 222.802 0.803,221.750 0.604,221.548 0.437 C 221.198 0.146,185.438 -0.078,180.052 0.176 M214.961 19.558 C 299.848 26.555,368.315 91.471,379.805 175.853 C 394.607 284.550,309.856 381.443,200.000 381.420 C 86.967 381.396,1.443 279.050,21.547 167.865 C 38.125 76.183,121.969 11.892,214.961 19.558 M120.661 111.573 C 116.343 112.589,111.043 118.247,111.029 121.853 C 111.016 125.283,111.559 125.865,124.570 136.380 C 138.688 147.791,138.299 147.460,138.481 148.186 C 138.841 149.621,138.470 150.012,132.607 154.377 C 129.470 156.712,124.396 160.488,121.332 162.768 C 115.045 167.448,114.078 168.345,112.983 170.513 C 109.927 176.566,115.429 185.564,122.186 185.564 C 125.003 185.564,125.964 185.015,136.007 177.665 C 150.300 167.206,154.020 164.490,158.754 161.055 C 166.206 155.647,167.055 154.504,167.058 149.869 C 167.062 144.535,169.921 147.228,131.234 116.112 C 125.627 111.603,123.823 110.828,120.661 111.573 M281.346 130.805 C 278.726 131.512,278.594 131.622,265.951 143.648 C 245.780 162.836,244.404 164.500,244.665 169.377 C 244.937 174.468,246.396 175.707,273.228 193.635 C 284.669 201.279,284.958 201.431,288.058 201.438 C 296.167 201.455,301.163 190.664,295.614 185.116 C 293.177 182.678,284.947 176.864,275.628 170.997 C 270.713 167.902,270.834 166.548,276.479 161.493 C 285.075 153.795,292.583 145.737,293.398 143.334 C 295.598 136.849,288.046 128.999,281.346 130.805 M248.586 229.796 C 243.148 231.317,241.611 233.471,240.815 240.682 C 236.883 276.298,226.736 291.629,207.118 291.596 C 186.119 291.561,171.196 274.145,164.596 241.969 C 164.022 239.168,163.368 236.362,163.142 235.733 C 159.422 225.337,142.360 229.515,143.392 240.570 C 144.502 252.458,150.387 269.641,157.165 280.785 C 171.779 304.813,193.403 315.268,218.306 310.345 C 234.935 307.058,247.205 295.472,254.278 276.378 C 259.905 261.189,262.267 241.171,259.220 234.514 C 257.333 230.393,253.124 228.526,248.586 229.796 " stroke="none" fill="#340424" fill-rule="evenodd"></path><path id="path1" d="M192.782 19.057 C 86.467 23.856,7.579 116.464,19.976 221.916 C 30.647 312.691,108.196 381.401,200.000 381.420 C 316.533 381.445,402.858 273.169,376.866 159.580 C 357.495 74.927,279.196 15.157,192.782 19.057 M124.402 111.702 C 126.215 112.240,127.254 112.911,131.234 116.112 C 169.921 147.228,167.062 144.535,167.058 149.869 C 167.055 154.504,166.206 155.647,158.754 161.055 C 154.020 164.490,150.300 167.206,136.007 177.665 C 125.964 185.015,125.003 185.564,122.186 185.564 C 115.429 185.564,109.927 176.566,112.983 170.513 C 114.078 168.345,115.045 167.448,121.332 162.768 C 140.393 148.582,138.899 149.852,138.481 148.186 C 138.299 147.460,138.688 147.791,124.570 136.380 C 113.637 127.544,112.501 126.507,111.563 124.514 C 108.883 118.811,117.933 109.781,124.402 111.702 M285.433 130.802 C 292.447 132.671,295.815 140.081,292.173 145.631 C 291.042 147.355,281.521 156.978,276.479 161.493 C 270.834 166.548,270.713 167.902,275.628 170.997 C 284.947 176.864,293.177 182.678,295.614 185.116 C 302.681 192.182,292.929 205.138,283.990 200.559 C 281.079 199.068,253.848 180.703,249.845 177.531 C 244.162 173.028,243.105 168.498,246.501 163.206 C 247.880 161.057,262.958 146.199,275.696 134.437 C 279.532 130.894,282.134 129.923,285.433 130.802 M255.210 230.192 C 260.172 232.670,261.462 238.570,259.968 251.953 C 257.198 276.766,247.674 295.251,232.736 304.807 C 217.085 314.819,192.931 313.638,176.470 302.058 C 159.603 290.190,145.594 264.150,143.392 240.570 C 142.501 231.027,156.170 225.648,161.805 233.325 C 163.055 235.028,163.377 236.026,164.596 241.969 C 171.196 274.145,186.119 291.561,207.118 291.596 C 226.736 291.629,236.883 276.298,240.815 240.682 C 241.355 235.790,241.727 234.499,243.021 233.029 C 245.802 229.869,251.778 228.478,255.210 230.192 " stroke="none" fill="#a96a3e" fill-rule="evenodd"></path></g></svg>