<svg xmlns="http://www.w3.org/2000/svg" width="512" height="512" viewBox="0 0 512 512" version="1.1"><path d="M 329.500 1.078 C 313.210 2.669, 298.104 12.203, 288.977 26.654 C 278.884 42.635, 270.165 69.894, 263.599 106 C 261.017 120.199, 257 150.061, 257 155.062 C 257 156.678, 256.550 158, 256 158 C 255.450 158, 255 156.681, 255 155.069 C 255 150.476, 251.273 122.978, 248.484 107 C 241.760 68.475, 231.638 38.173, 220.361 22.811 C 213.305 13.198, 203.157 6.201, 191.068 2.612 C 184.135 0.554, 170.254 0.523, 162.460 2.549 C 146.121 6.797, 131.929 19.807, 125.292 36.623 C 122.884 42.723, 122.573 44.856, 122.539 55.500 L 122.500 67.500 111 67.533 C 97.337 67.572, 90.389 69.602, 79.778 76.650 C 52.402 94.837, 47.553 133.378, 69.560 157.856 C 82.868 172.657, 110.373 183.706, 155.592 192.414 C 169.457 195.085, 204.038 200, 208.960 200 C 210.567 200, 212.120 200.385, 212.410 200.855 C 212.701 201.325, 208.003 202.213, 201.970 202.827 C 158.810 207.221, 112.894 218.015, 91.101 228.890 C 80.160 234.349, 75.219 237.850, 69.538 244.169 C 60.498 254.224, 55.933 266.413, 55.933 280.500 C 55.933 295.849, 61.007 308.007, 72 319 C 83.346 330.346, 97.286 335.622, 113.661 334.767 L 122.823 334.288 122.284 343.394 C 121.326 359.609, 126.617 373.617, 138 385 C 163.200 410.200, 203.931 405.576, 223.023 375.346 C 232.760 359.929, 241.159 334.322, 247.408 301 C 250.349 285.321, 253.628 262.864, 254.599 251.750 C 255.247 244.334, 257 240.815, 257 246.931 C 257 251.921, 260.903 280.763, 263.640 296 C 270.202 332.532, 278.630 358.962, 288.901 375.226 C 299.308 391.704, 316.211 401.222, 335.085 401.233 C 350.348 401.242, 363.052 395.943, 374.007 385 C 385.301 373.718, 390.668 359.502, 389.716 343.394 L 389.177 334.288 398.339 334.767 C 414.714 335.622, 428.654 330.346, 440 319 C 450.993 308.007, 456.067 295.849, 456.067 280.500 C 456.067 266.413, 451.502 254.224, 442.462 244.169 C 431.569 232.053, 411.789 222.810, 379.258 214.634 C 360.308 209.872, 312.104 202, 301.890 202 C 295.920 202, 300.121 200.265, 307.722 199.592 C 320.661 198.446, 348.536 194.076, 365.541 190.527 C 422.063 178.734, 446.034 164.028, 454.421 136 C 456.589 128.756, 456.589 114.246, 454.422 107 C 450.655 94.405, 443.002 83.915, 432.322 76.707 C 421.840 69.633, 414.807 67.573, 401 67.533 L 389.500 67.500 389.494 56 C 389.487 42.356, 387.477 35.508, 380.320 24.733 C 369.121 7.877, 350.179 -0.940, 329.500 1.078 M 182.200 127.200 C 181.540 127.860, 181 129.095, 181 129.945 C 181 130.794, 196.635 147.129, 215.745 166.245 L 250.489 201 215.745 235.755 C 196.635 254.871, 181 271.206, 181 272.055 C 181 274.037, 182.963 276, 184.945 276 C 185.794 276, 202.129 260.365, 221.245 241.255 L 256 206.511 290.755 241.255 C 309.871 260.365, 326.206 276, 327.055 276 C 327.905 276, 329.140 275.460, 329.800 274.800 C 330.460 274.140, 331 272.905, 331 272.055 C 331 271.206, 315.365 254.871, 296.255 235.755 L 261.511 201 296.255 166.245 C 315.365 147.129, 331 130.794, 331 129.945 C 331 127.963, 329.037 126, 327.055 126 C 326.206 126, 309.871 141.635, 290.755 160.745 L 256 195.489 221.245 160.745 C 202.129 141.635, 185.794 126, 184.945 126 C 184.095 126, 182.860 126.540, 182.200 127.200 M 254.030 307.250 C 251.928 319.067, 248.254 333.589, 243.593 348.500 C 241.187 356.200, 237.996 368.125, 236.502 375 C 227.208 417.789, 210.614 446.542, 182.530 468.519 C 172.683 476.224, 170.528 478.493, 168.548 483.232 C 163.889 494.382, 171.400 508.214, 183.502 510.774 C 193.474 512.882, 201.055 508.442, 216.210 491.618 C 247.779 456.573, 261.196 417.510, 264.511 351 C 265.090 339.385, 264.925 337.650, 262.193 326.500 C 260.575 319.900, 258.673 311.238, 257.966 307.250 C 257.258 303.262, 256.374 300, 256 300 C 255.626 300, 254.740 303.262, 254.030 307.250" stroke="none" fill="#44c454" fill-rule="evenodd"/></svg>